<?xml version="1.0" encoding="utf-8"?>
<!-- Generator: Adobe Illustrator 22.1.0, SVG Export Plug-In . SVG Version: 6.00 Build 0)  -->
<svg version="1.1" id="Layer_1" xmlns="http://www.w3.org/2000/svg" xmlns:xlink="http://www.w3.org/1999/xlink" x="0px" y="0px"
	 viewBox="0 0 577 66.9" style="enable-background:new 0 0 577 66.9;" xml:space="preserve">
<style type="text/css">
	.st0{fill:#FFFFFF;}
</style>
<title>partner</title>
<g>
	<polygon class="st0" points="424.5,56.6 312.2,2.1 304.3,2.1 304.3,65.1 311.9,65.1 311.9,10 424.2,65.1 432.1,65.1 432.1,2.1 
		424.5,2.1 	"/>
	<polygon class="st0" points="451.7,2.1 451.7,9.1 510.5,9.1 510.5,65.1 518.1,65.1 518.1,9.1 577,9.1 577,2.1 	"/>
	<path class="st0" d="M275.9,65.1h10.6L214.7,0l-71.8,65.1h10.6l19.2-16.7h83.9L275.9,65.1z M179.9,41.5l34.8-31.2l34.8,31.2H179.9z
		"/>
	<path class="st0" d="M58.2,31.2V38h63.4v13.5c-11,4.9-26.9,8.7-50.6,8.7C42.7,60.2,9,51.5,9,33.4S43.4,7,69.6,7
		c23,0,41.7,5,52.3,11.1l4.4-6.1C115.1,5.9,95.5,0.3,69.6,0.3C37.6,0.3,0,11.5,0,33.4c0,21.9,37.1,33.6,71,33.6
		c23.6,0,42.9-3.7,58.5-11.4v-24v-0.3H58.2z"/>
</g>
</svg>
